<svg id="Layer_1" data-name="Layer 1" xmlns="http://www.w3.org/2000/svg" viewBox="0 0 100 22.9"><defs><style>.cls-1{font-size:20.6px;font-family:Optima-Bold, Optima;font-weight:700;}.cls-2{fill:#316bf5;}.cls-3{fill:#00d6c0;}</style></defs><title>carelab</title><text class="cls-1" transform="translate(30.2 17.4)">Carelab</text><path class="cls-2" d="M26.5.1H16.3C12.2,0,8.1-.3,4.6,2.3A11.5,11.5,0,0,0,2.8,19a12,12,0,0,0,8.5,3.8H26.5a1.1,1.1,0,0,0,.8-.3,1.3,1.3,0,0,0,.4-.9V1.3A1.3,1.3,0,0,0,26.5.1ZM6.9,19.2A9.1,9.1,0,0,1,5.3,4.8a8.9,8.9,0,0,1,6.2-2.3H25.3c0,5.5,0,11.1-.1,16.6v1.3H17.1C13.8,20.4,9.9,20.9,6.9,19.2Z"/><path class="cls-3" d="M20.9,10H16.7V5.7a.3.3,0,0,0-.3-.3H14a.5.5,0,0,0-.3.3V9.9H9.5l-.3.3v2.4c0,.1,0,.2.1.2h4.4v4.2a.3.3,0,0,0,.3.3h2.6V12.9h4.2c.2,0,.3-.1.3-.2V10.3A.3.3,0,0,0,20.9,10Z"/></svg>